<svg width="256" height="154" viewBox="0 0 256 154" fill="none" xmlns="http://www.w3.org/2000/svg">
  <path d="M128 0C96 0 80 20.5 72 30.8C62.4 43.2 51.2 51.2 36 51.2C20.8 51.2 9.6 43.2 0 30.8C16 61.6 36.8 77 63.6 77C96 77 112 56.5 120 46.2C129.6 33.8 140.8 25.8 156 25.8C171.2 25.8 182.4 33.8 192 46.2C176 15.4 155.2 0 128 0Z" fill="#38BDF8"/>
  <path d="M128 77C96 77 80 97.5 72 107.8C62.4 120.2 51.2 128.2 36 128.2C20.8 128.2 9.6 120.2 0 107.8C16 138.6 36.8 154 63.6 154C96 154 112 133.5 120 123.2C129.6 110.8 140.8 102.8 156 102.8C171.2 102.8 182.4 110.8 192 123.2C176 92.4 155.2 77 128 77Z" fill="#06B6D4"/>
</svg>

